# Blender 4.1.1
# www.blender.org
mtllib cornerfinal.mtl
o Corner
v -18.360907 -4.454545 -9.636368
v -14.360908 -4.454545 -9.636368
v -18.360907 5.545455 -9.636368
v -14.360907 5.545455 -9.636368
v -18.360909 -4.454545 -21.636368
v -14.360908 -4.454545 -21.636368
v -18.360907 5.545455 -21.636368
v -14.360908 5.545455 -21.636368
v -18.360907 -6.454545 18.363632
v -18.360907 -4.454545 18.363632
v -18.360909 -6.454545 -21.636368
v -18.360909 -4.454545 -21.636368
v 21.639093 -6.454545 18.363636
v 21.639093 -4.454546 18.363636
v 21.639091 -6.454545 -21.636366
v 21.639091 -4.454546 -21.636366
v 9.639092 -4.454546 -21.636368
v 9.639092 -4.454546 -17.636368
v 9.639092 5.545456 -21.636366
v 9.639092 5.545456 -17.636368
v 21.639091 -4.454546 -21.636366
v 21.639091 -4.454546 -17.636368
v 21.639093 5.545455 -21.636366
v 21.639093 5.545455 -17.636366
v -18.360907 -4.454545 -21.636368
v -18.360907 -4.454545 -17.636368
v -18.360907 5.545456 -21.636366
v -18.360907 5.545456 -17.636368
v -6.360906 -4.454545 -21.636366
v -6.360906 -4.454545 -17.636368
v -6.360907 5.545455 -21.636366
v -6.360907 5.545455 -17.636366
v 9.639093 -4.454546 14.363634
v 9.639094 -4.454546 18.363632
v 9.639094 5.545456 14.363634
v 9.639094 5.545456 18.363636
v 21.639093 -4.454546 14.363633
v 21.639093 -4.454546 18.363636
v 21.639093 5.545455 14.363636
v 21.639095 5.545455 18.363636
v -18.360907 -4.454545 14.363635
v -18.360907 -4.454545 18.363632
v -18.360909 5.545456 14.363635
v -18.360907 5.545456 18.363636
v -6.360906 -4.454545 14.363634
v -6.360906 -4.454545 18.363636
v -6.360908 5.545455 14.363637
v -6.360908 5.545455 18.363636
v -18.360907 -4.454545 18.363632
v -14.360906 -4.454545 18.363632
v -18.360905 5.545456 18.363632
v -14.360906 5.545455 18.363632
v -18.360907 -4.454545 6.363634
v -14.360907 -4.454545 6.363634
v -18.360907 5.545456 6.363634
v -14.360906 5.545455 6.363634
v 17.639093 -4.454546 18.363636
v 21.639093 -4.454546 18.363636
v 17.639095 5.545455 18.363636
v 21.639095 5.545455 18.363636
v 17.639093 -4.454546 6.363635
v 21.639093 -4.454546 6.363635
v 17.639093 5.545455 6.363635
v 21.639093 5.545455 6.363635
v 17.639093 -4.454546 -9.636367
v 21.639093 -4.454546 -9.636367
v 17.639093 5.545455 -9.636367
v 21.639093 5.545455 -9.636367
v 17.639091 -4.454546 -21.636366
v 21.639091 -4.454546 -21.636366
v 17.639093 5.545455 -21.636366
v 21.639093 5.545455 -21.636366
v -14.390906 -4.454545 8.363638
v -14.390905 5.545455 8.363638
v -18.390905 -4.454545 8.363638
v -18.390907 5.545456 8.363638
v -14.390907 -4.454545 -11.636365
v -14.390906 5.545455 -11.636365
v -18.390905 -4.454545 -11.636365
v -18.390907 5.545456 -11.636365
v -8.360908 -4.454545 18.363636
v -8.360908 5.545456 18.363636
v -8.360909 -4.454545 14.363634
v -8.360908 5.545456 14.363634
v 11.639092 -4.454545 18.363636
v 11.639092 5.545456 18.363636
v 11.639091 -4.454545 14.363633
v 11.639092 5.545456 14.363633
vn -0.0000 -0.0000 1.0000
vn -0.0000 1.0000 -0.0000
vn -0.0000 -0.0000 -1.0000
vn -0.0000 -1.0000 -0.0000
vn -1.0000 -0.0000 -0.0000
vn 1.0000 -0.0000 -0.0000
vt 0.375000 0.000000
vt 0.625000 0.000000
vt 0.625000 0.250000
vt 0.375000 0.250000
vt 0.625000 0.500000
vt 0.375000 0.500000
vt 0.625000 0.750000
vt 0.375000 0.750000
vt 0.625000 1.000000
vt 0.375000 1.000000
vt 0.125000 0.500000
vt 0.125000 0.750000
vt 0.875000 0.500000
vt 0.875000 0.750000
s 0
f 1/1/1 2/2/1 4/3/1 3/4/1
f 3/4/2 4/3/2 8/5/2 7/6/2
f 7/6/3 8/5/3 6/7/3 5/8/3
f 5/8/4 6/7/4 2/9/4 1/10/4
f 3/11/5 7/6/5 5/8/5 1/12/5
f 8/5/6 4/13/6 2/14/6 6/7/6
f 9/1/5 10/2/5 12/3/5 11/4/5
f 11/4/3 12/3/3 16/5/3 15/6/3
f 15/6/6 16/5/6 14/7/6 13/8/6
f 13/8/1 14/7/1 10/9/1 9/10/1
f 11/11/4 15/6/4 13/8/4 9/12/4
f 16/5/2 12/13/2 10/14/2 14/7/2
f 17/1/5 18/2/5 20/3/5 19/4/5
f 19/4/2 20/3/2 24/5/2 23/6/2
f 23/6/6 24/5/6 22/7/6 21/8/6
f 21/8/4 22/7/4 18/9/4 17/10/4
f 19/11/3 23/6/3 21/8/3 17/12/3
f 24/5/1 20/13/1 18/14/1 22/7/1
f 25/1/5 26/2/5 28/3/5 27/4/5
f 27/4/2 28/3/2 32/5/2 31/6/2
f 31/6/6 32/5/6 30/7/6 29/8/6
f 29/8/4 30/7/4 26/9/4 25/10/4
f 27/11/3 31/6/3 29/8/3 25/12/3
f 32/5/1 28/13/1 26/14/1 30/7/1
f 33/1/5 34/2/5 36/3/5 35/4/5
f 35/4/2 36/3/2 40/5/2 39/6/2
f 39/6/6 40/5/6 38/7/6 37/8/6
f 37/8/4 38/7/4 34/9/4 33/10/4
f 35/11/3 39/6/3 37/8/3 33/12/3
f 40/5/1 36/13/1 34/14/1 38/7/1
f 41/1/5 42/2/5 44/3/5 43/4/5
f 43/4/2 44/3/2 48/5/2 47/6/2
f 47/6/6 48/5/6 46/7/6 45/8/6
f 45/8/4 46/7/4 42/9/4 41/10/4
f 43/11/3 47/6/3 45/8/3 41/12/3
f 48/5/1 44/13/1 42/14/1 46/7/1
f 49/1/1 50/2/1 52/3/1 51/4/1
f 51/4/2 52/3/2 56/5/2 55/6/2
f 55/6/3 56/5/3 54/7/3 53/8/3
f 53/8/4 54/7/4 50/9/4 49/10/4
f 51/11/5 55/6/5 53/8/5 49/12/5
f 56/5/6 52/13/6 50/14/6 54/7/6
f 57/1/1 58/2/1 60/3/1 59/4/1
f 59/4/2 60/3/2 64/5/2 63/6/2
f 63/6/3 64/5/3 62/7/3 61/8/3
f 61/8/4 62/7/4 58/9/4 57/10/4
f 59/11/5 63/6/5 61/8/5 57/12/5
f 64/5/6 60/13/6 58/14/6 62/7/6
f 65/1/1 66/2/1 68/3/1 67/4/1
f 67/4/2 68/3/2 72/5/2 71/6/2
f 71/6/3 72/5/3 70/7/3 69/8/3
f 69/8/4 70/7/4 66/9/4 65/10/4
f 67/11/5 71/6/5 69/8/5 65/12/5
f 72/5/6 68/13/6 66/14/6 70/7/6
f 73/1/1 74/2/1 76/3/1 75/4/1
f 75/4/5 76/3/5 80/5/5 79/6/5
f 79/6/3 80/5/3 78/7/3 77/8/3
f 77/8/6 78/7/6 74/9/6 73/10/6
f 75/11/4 79/6/4 77/8/4 73/12/4
f 80/5/2 76/13/2 74/14/2 78/7/2
f 81/1/5 82/2/5 84/3/5 83/4/5
f 83/4/3 84/3/3 88/5/3 87/6/3
f 87/6/6 88/5/6 86/7/6 85/8/6
f 85/8/1 86/7/1 82/9/1 81/10/1
f 83/11/4 87/6/4 85/8/4 81/12/4
f 88/5/2 84/13/2 82/14/2 86/7/2
