# Blender 4.1.1
# www.blender.org
mtllib osakatv.mtl
o Cube
v 2.000000 3.001883 -0.140000
v 2.000000 0.001882 -0.140000
v 2.000000 3.001883 0.140000
v 2.000000 0.001882 0.140000
v -2.000000 3.001883 -0.140000
v -2.000000 0.001882 -0.140000
v -2.000000 3.001883 0.140000
v -2.000000 0.001882 0.140000
v 2.000000 2.736633 -0.140000
v -2.000000 2.736633 0.140000
v 2.000000 2.736633 0.140000
v -2.000000 2.736633 -0.140000
v 2.000000 0.210190 -0.140000
v 2.000000 0.210190 0.140000
v -2.000000 0.210190 -0.140000
v -2.000000 0.210190 0.140000
v -1.685683 0.001882 -0.140000
v -1.685683 3.001883 0.140000
v -1.685683 0.001882 0.140000
v -1.685683 3.001883 -0.140000
v -1.685683 2.736633 -0.140000
v -1.685683 2.736633 0.140000
v -1.685683 0.210190 0.140000
v -1.685683 0.210190 -0.140000
v 1.724948 0.001882 0.140000
v 1.724948 3.001883 -0.140000
v 1.724948 2.736633 -0.140000
v 1.724948 0.210190 -0.140000
v 1.724948 0.001882 -0.140000
v 1.724948 3.001883 0.140000
v 1.724948 2.736633 0.140000
v 1.724948 0.210190 0.140000
v 1.724948 2.736633 -0.053932
v -1.685683 2.736633 -0.053932
v 1.724948 0.210190 -0.053932
v -1.685683 0.210190 -0.053932
v 1.724948 2.736633 0.018195
v -1.685683 2.736633 0.018195
v 1.724948 0.210190 0.018195
v -1.685683 0.210190 0.018195
vn -0.0000 1.0000 -0.0000
vn -0.0000 -0.0000 1.0000
vn -1.0000 -0.0000 -0.0000
vn -0.0000 -1.0000 -0.0000
vn 1.0000 -0.0000 -0.0000
vn -0.0000 -0.0000 -1.0000
vt 0.855355 0.500000
vt 0.875000 0.500000
vt 0.875000 0.750000
vt 0.855355 0.750000
vt 0.602896 0.980355
vt 0.625000 0.980355
vt 0.625000 1.000000
vt 0.602896 1.000000
vt 0.602896 0.000000
vt 0.625000 0.000000
vt 0.625000 0.250000
vt 0.602896 0.250000
vt 0.357809 0.500000
vt 0.375000 0.500000
vt 0.375000 0.750000
vt 0.357809 0.750000
vt 0.602896 0.500000
vt 0.625000 0.500000
vt 0.625000 0.750000
vt 0.602896 0.750000
vt 0.602896 0.482809
vt 0.625000 0.482809
vt 0.392359 0.482809
vt 0.392359 0.500000
vt 0.392359 0.750000
vt 0.392359 0.000000
vt 0.392359 0.250000
vt 0.392359 0.980355
vt 0.392359 1.000000
vt 0.375000 0.980355
vt 0.375000 1.000000
vt 0.375000 0.000000
vt 0.375000 0.250000
vt 0.375000 0.482809
vt 0.392359 0.269645
vt 0.375000 0.269645
vt 0.375000 0.767191
vt 0.392359 0.767191
vt 0.602896 0.269645
vt 0.625000 0.269645
vt 0.125000 0.500000
vt 0.144645 0.500000
vt 0.144645 0.750000
vt 0.125000 0.750000
vt 0.602896 0.767191
vt 0.625000 0.767191
vt 0.642191 0.500000
vt 0.642191 0.750000
vt -0.001286 -0.004835
vt -0.001223 0.994631
vt 0.998494 0.999777
vt 0.998431 -0.004897
s 0
usemtl Material
f 39/49/2 37/50/2 38/51/2 40/52/2
usemtl Material.001
f 20/1/1 5/2/1 7/3/1 18/4/1
f 22/5/2 18/6/2 7/7/2 10/8/2
f 10/9/3 7/10/3 5/11/3 12/12/3
f 29/13/4 2/14/4 4/15/4 25/16/4
f 9/17/5 1/18/5 3/19/5 11/20/5
f 27/21/6 26/22/6 1/18/6 9/17/6
f 28/23/6 27/21/6 9/17/6 13/24/6
f 13/24/5 9/17/5 11/20/5 14/25/5
f 16/26/3 10/9/3 12/12/3 15/27/3
f 23/28/2 22/5/2 10/8/2 16/29/2
f 19/30/2 23/28/2 16/29/2 8/31/2
f 8/32/3 16/26/3 15/27/3 6/33/3
f 2/14/5 13/24/5 14/25/5 4/15/5
f 29/34/6 28/23/6 13/24/6 2/14/6
f 6/33/6 15/27/6 24/35/6 17/36/6
f 25/37/2 32/38/2 23/28/2 19/30/2
f 23/28/1 32/38/1 35/38/1 36/28/1
f 15/27/6 12/12/6 21/39/6 24/35/6
f 12/12/6 5/11/6 20/40/6 21/39/6
f 6/41/4 17/42/4 19/43/4 8/44/4
f 31/45/2 30/46/2 18/6/2 22/5/2
f 26/47/1 20/1/1 18/4/1 30/48/1
f 1/18/1 26/47/1 30/48/1 3/19/1
f 11/20/2 3/19/2 30/46/2 31/45/2
f 14/25/2 11/20/2 31/45/2 32/38/2
f 4/15/2 14/25/2 32/38/2 25/37/2
f 17/36/6 24/35/6 28/23/6 29/34/6
f 24/35/6 21/39/6 27/21/6 28/23/6
f 21/39/6 20/40/6 26/22/6 27/21/6
f 17/42/4 29/13/4 25/16/4 19/43/4
f 35/38/5 33/45/5 37/45/5 39/38/5
f 32/38/3 31/45/3 33/45/3 35/38/3
f 31/45/4 22/5/4 34/5/4 33/45/4
f 22/5/5 23/28/5 36/28/5 34/5/5
f 36/28/4 35/38/4 39/38/4 40/28/4
f 34/5/3 36/28/3 40/28/3 38/5/3
f 33/45/1 34/5/1 38/5/1 37/45/1
