# Blender 4.1.1
# www.blender.org
mtllib path.mtl
o Cube.003
v -1.000000 1.000000 83.000000
v -1.000000 11.000000 83.000000
v -1.000000 1.000000 79.000000
v -1.000000 11.000000 79.000000
v 19.000000 1.000000 83.000000
v 19.000000 11.000000 83.000000
v 19.000000 1.000000 79.000000
v 19.000000 11.000000 79.000000
v -11.000000 1.000000 91.000000
v -6.999999 1.000000 91.000000
v -10.999998 11.000000 91.000000
v -6.999999 11.000000 91.000000
v -11.000000 1.000000 79.000000
v -7.000000 1.000000 79.000000
v -11.000000 11.000000 79.000000
v -6.999999 11.000000 79.000000
v -10.999998 -1.000000 119.000000
v -10.999998 1.000000 119.000000
v -11.000000 -1.000000 79.000000
v -11.000000 1.000000 79.000000
v 28.999998 -1.000000 119.000000
v 29.000000 1.000000 119.000000
v 28.999998 -1.000000 79.000000
v 28.999998 1.000000 79.000000
v 17.000000 1.000000 79.000000
v 17.000000 1.000000 83.000000
v 17.000000 11.000000 79.000000
v 17.000000 11.000000 83.000000
v 28.999998 0.999999 79.000000
v 28.999998 0.999999 83.000000
v 28.999998 11.000000 79.000000
v 28.999998 11.000000 83.000000
v -10.999998 1.000000 79.000000
v -10.999998 1.000000 83.000000
v -10.999998 11.000000 79.000000
v -10.999998 11.000000 83.000000
v 1.000002 1.000000 79.000000
v 1.000002 1.000000 83.000000
v 1.000000 11.000000 79.000000
v 1.000000 11.000000 83.000000
v 17.000000 1.000000 115.000000
v 17.000002 1.000000 119.000000
v 17.000002 11.000000 115.000000
v 17.000002 11.000000 119.000000
v 28.999998 0.999999 115.000000
v 29.000000 0.999999 119.000000
v 29.000000 11.000000 115.000000
v 29.000000 11.000000 119.000000
v -10.999998 1.000000 115.000000
v -10.999998 1.000000 119.000000
v -11.000000 11.000000 115.000000
v -10.999998 11.000000 119.000000
v 1.000000 1.000000 115.000000
v 1.000002 1.000000 119.000000
v 1.000000 11.000000 115.000008
v 1.000000 11.000000 119.000000
v -10.999998 1.000000 119.000000
v -6.999998 1.000000 119.000000
v -10.999998 11.000000 119.000000
v -6.999998 11.000000 119.000000
v -10.999998 1.000000 107.000000
v -6.999999 1.000000 107.000000
v -10.999998 11.000000 107.000000
v -6.999999 11.000000 107.000000
v 25.000002 1.000000 119.000000
v 29.000000 0.999999 119.000000
v 25.000002 11.000000 119.000000
v 29.000000 11.000000 119.000000
v 25.000000 1.000000 107.000000
v 28.999998 0.999999 107.000000
v 25.000000 11.000000 107.000000
v 28.999998 11.000000 107.000000
v 25.000000 1.000000 91.000000
v 28.999998 0.999999 91.000000
v 25.000000 11.000000 91.000000
v 28.999998 11.000000 91.000000
v 25.000000 1.000000 79.000000
v 28.999998 0.999999 79.000000
v 25.000000 11.000000 79.000000
v 28.999998 11.000000 79.000000
v -0.999999 1.000000 119.000000
v -0.999999 11.000000 119.000000
v -0.999999 1.000000 115.000000
v -0.999999 11.000000 115.000000
v 19.000000 1.000000 119.000000
v 19.000000 11.000000 119.000000
v 19.000000 1.000000 115.000000
v 19.000000 11.000000 115.000000
vn -1.0000 -0.0000 -0.0000
vn -0.0000 -0.0000 -1.0000
vn 1.0000 -0.0000 -0.0000
vn -0.0000 -0.0000 1.0000
vn -0.0000 -1.0000 -0.0000
vn -0.0000 1.0000 -0.0000
vt 0.375000 0.000000
vt 0.625000 0.000000
vt 0.625000 0.250000
vt 0.375000 0.250000
vt 0.625000 0.500000
vt 0.375000 0.500000
vt 0.625000 0.750000
vt 0.375000 0.750000
vt 0.625000 1.000000
vt 0.375000 1.000000
vt 0.125000 0.500000
vt 0.125000 0.750000
vt 0.875000 0.500000
vt 0.875000 0.750000
s 0
f 1/1/1 2/2/1 4/3/1 3/4/1
f 3/4/2 4/3/2 8/5/2 7/6/2
f 7/6/3 8/5/3 6/7/3 5/8/3
f 5/8/4 6/7/4 2/9/4 1/10/4
f 3/11/5 7/6/5 5/8/5 1/12/5
f 8/5/6 4/13/6 2/14/6 6/7/6
f 9/1/4 10/2/4 12/3/4 11/4/4
f 11/4/6 12/3/6 16/5/6 15/6/6
f 15/6/2 16/5/2 14/7/2 13/8/2
f 13/8/5 14/7/5 10/9/5 9/10/5
f 11/11/1 15/6/1 13/8/1 9/12/1
f 16/5/3 12/13/3 10/14/3 14/7/3
f 17/1/1 18/2/1 20/3/1 19/4/1
f 19/4/2 20/3/2 24/5/2 23/6/2
f 23/6/3 24/5/3 22/7/3 21/8/3
f 21/8/4 22/7/4 18/9/4 17/10/4
f 19/11/5 23/6/5 21/8/5 17/12/5
f 24/5/6 20/13/6 18/14/6 22/7/6
f 25/1/1 26/2/1 28/3/1 27/4/1
f 27/4/6 28/3/6 32/5/6 31/6/6
f 31/6/3 32/5/3 30/7/3 29/8/3
f 29/8/5 30/7/5 26/9/5 25/10/5
f 27/11/2 31/6/2 29/8/2 25/12/2
f 32/5/4 28/13/4 26/14/4 30/7/4
f 33/1/1 34/2/1 36/3/1 35/4/1
f 35/4/6 36/3/6 40/5/6 39/6/6
f 39/6/3 40/5/3 38/7/3 37/8/3
f 37/8/5 38/7/5 34/9/5 33/10/5
f 35/11/2 39/6/2 37/8/2 33/12/2
f 40/5/4 36/13/4 34/14/4 38/7/4
f 41/1/1 42/2/1 44/3/1 43/4/1
f 43/4/6 44/3/6 48/5/6 47/6/6
f 47/6/3 48/5/3 46/7/3 45/8/3
f 45/8/5 46/7/5 42/9/5 41/10/5
f 43/11/2 47/6/2 45/8/2 41/12/2
f 48/5/4 44/13/4 42/14/4 46/7/4
f 49/1/1 50/2/1 52/3/1 51/4/1
f 51/4/6 52/3/6 56/5/6 55/6/6
f 55/6/3 56/5/3 54/7/3 53/8/3
f 53/8/5 54/7/5 50/9/5 49/10/5
f 51/11/2 55/6/2 53/8/2 49/12/2
f 56/5/4 52/13/4 50/14/4 54/7/4
f 57/1/4 58/2/4 60/3/4 59/4/4
f 59/4/6 60/3/6 64/5/6 63/6/6
f 63/6/2 64/5/2 62/7/2 61/8/2
f 61/8/5 62/7/5 58/9/5 57/10/5
f 59/11/1 63/6/1 61/8/1 57/12/1
f 64/5/3 60/13/3 58/14/3 62/7/3
f 65/1/4 66/2/4 68/3/4 67/4/4
f 67/4/6 68/3/6 72/5/6 71/6/6
f 71/6/2 72/5/2 70/7/2 69/8/2
f 69/8/5 70/7/5 66/9/5 65/10/5
f 67/11/1 71/6/1 69/8/1 65/12/1
f 72/5/3 68/13/3 66/14/3 70/7/3
f 73/1/4 74/2/4 76/3/4 75/4/4
f 75/4/6 76/3/6 80/5/6 79/6/6
f 79/6/2 80/5/2 78/7/2 77/8/2
f 77/8/5 78/7/5 74/9/5 73/10/5
f 75/11/1 79/6/1 77/8/1 73/12/1
f 80/5/3 76/13/3 74/14/3 78/7/3
f 81/1/1 82/2/1 84/3/1 83/4/1
f 83/4/2 84/3/2 88/5/2 87/6/2
f 87/6/3 88/5/3 86/7/3 85/8/3
f 85/8/4 86/7/4 82/9/4 81/10/4
f 83/11/5 87/6/5 85/8/5 81/12/5
f 88/5/6 84/13/6 82/14/6 86/7/6
